<svg width="1200" height="800" viewBox="0 0 1200 800" fill="none" xmlns="http://www.w3.org/2000/svg">
<rect width="1200" height="800" fill="#1E1E1E"/>
<g id="floor-1">
<rect width="1200" height="800" fill="white"/>
<g id="Group hallway">
<path id="Union" d="M600 269H572V384H546V149H600V269Z" fill="#CCCCCC"/>
<path id="Union (Stroke)" d="M570 267H598V151H548V382H570V267ZM572 384H546V149H600V269H572V384Z" fill="black"/>
<rect id="hallway" x="220" y="280" width="51" height="19" fill="#CCCCCC" stroke="black" stroke-width="2"/>
<path id="Union_2" d="M484 565H430V401H79V333H107V384H484V565Z" fill="#CCCCCC"/>
<path id="Union (Stroke)_2" d="M105 335H81V399H432V563H482V386H105V335ZM484 384V565H430V401H79V333H107V384H484Z" fill="black"/>
</g>
<g id="Group room">
<rect id="room-3_11" x="600.5" y="209.5" width="52" height="103" fill="#E9ECEF" stroke="#495057"/>
<rect id="room-3_2" x="322.5" y="401.5" width="99" height="163" fill="#E9ECEF" stroke="#495057"/>
<rect id="room-3_3" x="111.5" y="401.5" width="205" height="163" fill="#E9ECEF" stroke="#495057"/>
<rect id="room-3_4" x="23.5" y="380.5" width="73" height="184" fill="#E9ECEF" stroke="#495057"/>
<rect id="room-3_5" x="23.5" y="209.5" width="83" height="123" fill="#E9ECEF" stroke="#495057"/>
<rect id="room-3_9" x="120.5" y="209.5" width="98" height="91" fill="#E9ECEF" stroke="#495057"/>
<rect id="room-3_10" x="430.5" y="208.5" width="47" height="92" fill="#E9ECEF" stroke="#495057"/>
<rect id="room-3_8" x="272.5" y="208.5" width="157" height="92" fill="#E9ECEF" stroke="#495057"/>
<rect id="room-3_1" x="484.5" y="384.5" width="48" height="180" fill="#E9ECEF" stroke="#495057"/>
<rect id="room-3_7" x="484.5" y="209.5" width="62" height="97" fill="#E9ECEF" stroke="#495057"/>
<rect id="room-3_6" x="546.5" y="384.5" width="96" height="180" fill="#E9ECEF" stroke="#495057"/>
</g>
<g id="Group text">
<g id="3.6">
<path id="Vector" d="M599.172 479.119C598.814 479.114 598.456 479.045 598.098 478.915C597.74 478.784 597.414 478.564 597.118 478.254C596.823 477.942 596.586 477.52 596.407 476.989C596.228 476.455 596.138 475.784 596.138 474.977C596.138 474.205 596.211 473.52 596.355 472.923C596.5 472.324 596.711 471.82 596.986 471.411C597.262 470.999 597.594 470.686 597.983 470.473C598.375 470.26 598.817 470.153 599.309 470.153C599.797 470.153 600.232 470.251 600.613 470.447C600.996 470.641 601.309 470.911 601.55 471.257C601.792 471.604 601.948 472.003 602.019 472.455H600.979C600.882 472.063 600.695 471.737 600.417 471.479C600.138 471.22 599.769 471.091 599.309 471.091C598.632 471.091 598.1 471.385 597.711 471.973C597.324 472.561 597.13 473.386 597.127 474.449H597.195C597.354 474.207 597.543 474.001 597.762 473.831C597.983 473.658 598.228 473.524 598.495 473.43C598.762 473.337 599.044 473.29 599.343 473.29C599.843 473.29 600.3 473.415 600.715 473.665C601.13 473.912 601.462 474.254 601.712 474.692C601.962 475.126 602.087 475.625 602.087 476.188C602.087 476.727 601.966 477.222 601.725 477.67C601.483 478.116 601.144 478.472 600.706 478.736C600.272 478.997 599.76 479.125 599.172 479.119ZM599.172 478.182C599.53 478.182 599.851 478.092 600.135 477.913C600.422 477.734 600.648 477.494 600.813 477.193C600.98 476.892 601.064 476.557 601.064 476.188C601.064 475.827 600.983 475.499 600.821 475.203C600.662 474.905 600.442 474.668 600.161 474.491C599.882 474.315 599.564 474.227 599.206 474.227C598.936 474.227 598.685 474.281 598.452 474.389C598.219 474.494 598.015 474.639 597.838 474.824C597.665 475.009 597.529 475.22 597.429 475.459C597.33 475.695 597.28 475.943 597.28 476.205C597.28 476.551 597.361 476.875 597.523 477.176C597.688 477.477 597.912 477.72 598.196 477.905C598.483 478.089 598.809 478.182 599.172 478.182Z" fill="black"/>
<path id="Vector_2" d="M594.024 479.068C593.814 479.068 593.634 478.993 593.483 478.842C593.333 478.692 593.257 478.511 593.257 478.301C593.257 478.091 593.333 477.911 593.483 477.76C593.634 477.609 593.814 477.534 594.024 477.534C594.235 477.534 594.415 477.609 594.566 477.76C594.716 477.911 594.792 478.091 594.792 478.301C594.792 478.44 594.756 478.568 594.685 478.685C594.617 478.801 594.524 478.895 594.408 478.966C594.294 479.034 594.167 479.068 594.024 479.068Z" fill="black"/>
<path id="Vector_3" d="M588.852 479.119C588.29 479.119 587.788 479.023 587.348 478.83C586.911 478.636 586.562 478.368 586.304 478.024C586.048 477.678 585.909 477.276 585.886 476.818H586.96C586.983 477.099 587.08 477.342 587.25 477.547C587.42 477.749 587.643 477.905 587.919 478.016C588.195 478.126 588.5 478.182 588.835 478.182C589.21 478.182 589.543 478.116 589.832 477.986C590.122 477.855 590.349 477.673 590.514 477.44C590.679 477.207 590.761 476.938 590.761 476.631C590.761 476.31 590.682 476.027 590.523 475.783C590.364 475.536 590.131 475.342 589.824 475.203C589.517 475.064 589.142 474.994 588.699 474.994H588V474.057H588.699C589.045 474.057 589.349 473.994 589.611 473.869C589.875 473.744 590.081 473.568 590.229 473.341C590.379 473.114 590.455 472.847 590.455 472.54C590.455 472.244 590.389 471.987 590.259 471.768C590.128 471.55 589.943 471.379 589.705 471.257C589.469 471.135 589.19 471.074 588.869 471.074C588.568 471.074 588.284 471.129 588.017 471.24C587.753 471.348 587.537 471.506 587.369 471.713C587.202 471.918 587.111 472.165 587.097 472.455H586.074C586.091 471.997 586.229 471.597 586.487 471.253C586.746 470.906 587.084 470.636 587.501 470.443C587.922 470.25 588.384 470.153 588.886 470.153C589.426 470.153 589.889 470.263 590.276 470.482C590.662 470.697 590.959 470.983 591.166 471.338C591.374 471.693 591.477 472.077 591.477 472.489C591.477 472.98 591.348 473.399 591.089 473.746C590.834 474.092 590.486 474.332 590.045 474.466V474.534C590.597 474.625 591.027 474.859 591.337 475.237C591.646 475.612 591.801 476.077 591.801 476.631C591.801 477.105 591.672 477.531 591.413 477.909C591.158 478.284 590.808 478.58 590.365 478.795C589.922 479.011 589.418 479.119 588.852 479.119Z" fill="black"/>
</g>
<g id="3.7">
<path id="Vector_4" d="M518.676 267L522.58 259.278V259.21H518.08V258.273H523.67V259.261L519.784 267H518.676Z" fill="black"/>
<path id="Vector_5" d="M516.024 267.068C515.814 267.068 515.634 266.993 515.483 266.842C515.333 266.692 515.257 266.511 515.257 266.301C515.257 266.091 515.333 265.911 515.483 265.76C515.634 265.609 515.814 265.534 516.024 265.534C516.235 265.534 516.415 265.609 516.566 265.76C516.716 265.911 516.792 266.091 516.792 266.301C516.792 266.44 516.756 266.568 516.685 266.685C516.617 266.801 516.524 266.895 516.408 266.966C516.294 267.034 516.167 267.068 516.024 267.068Z" fill="black"/>
<path id="Vector_6" d="M510.852 267.119C510.29 267.119 509.788 267.023 509.348 266.83C508.911 266.636 508.562 266.368 508.304 266.024C508.048 265.678 507.909 265.276 507.886 264.818H508.96C508.983 265.099 509.08 265.342 509.25 265.547C509.42 265.749 509.643 265.905 509.919 266.016C510.195 266.126 510.5 266.182 510.835 266.182C511.21 266.182 511.543 266.116 511.832 265.986C512.122 265.855 512.349 265.673 512.514 265.44C512.679 265.207 512.761 264.938 512.761 264.631C512.761 264.31 512.682 264.027 512.523 263.783C512.364 263.536 512.131 263.342 511.824 263.203C511.517 263.064 511.142 262.994 510.699 262.994H510V262.057H510.699C511.045 262.057 511.349 261.994 511.611 261.869C511.875 261.744 512.081 261.568 512.229 261.341C512.379 261.114 512.455 260.847 512.455 260.54C512.455 260.244 512.389 259.987 512.259 259.768C512.128 259.55 511.943 259.379 511.705 259.257C511.469 259.135 511.19 259.074 510.869 259.074C510.568 259.074 510.284 259.129 510.017 259.24C509.753 259.348 509.537 259.506 509.369 259.713C509.202 259.918 509.111 260.165 509.097 260.455H508.074C508.091 259.997 508.229 259.597 508.487 259.253C508.746 258.906 509.084 258.636 509.501 258.443C509.922 258.25 510.384 258.153 510.886 258.153C511.426 258.153 511.889 258.263 512.276 258.482C512.662 258.697 512.959 258.983 513.166 259.338C513.374 259.693 513.477 260.077 513.477 260.489C513.477 260.98 513.348 261.399 513.089 261.746C512.834 262.092 512.486 262.332 512.045 262.466V262.534C512.597 262.625 513.027 262.859 513.337 263.237C513.646 263.612 513.801 264.077 513.801 264.631C513.801 265.105 513.672 265.531 513.413 265.909C513.158 266.284 512.808 266.58 512.365 266.795C511.922 267.011 511.418 267.119 510.852 267.119Z" fill="black"/>
</g>
<g id="3.11">
<path id="Vector_7" d="M637.183 262.273V271H636.126V263.381H636.075L633.944 264.795V263.722L636.126 262.273H637.183Z" fill="black"/>
<path id="Vector_8" d="M631.604 262.273V271H630.548V263.381H630.496L628.366 264.795V263.722L630.548 262.273H631.604Z" fill="black"/>
<path id="Vector_9" d="M627.024 271.068C626.814 271.068 626.634 270.993 626.483 270.842C626.333 270.692 626.257 270.511 626.257 270.301C626.257 270.091 626.333 269.911 626.483 269.76C626.634 269.609 626.814 269.534 627.024 269.534C627.235 269.534 627.415 269.609 627.566 269.76C627.716 269.911 627.792 270.091 627.792 270.301C627.792 270.44 627.756 270.568 627.685 270.685C627.617 270.801 627.524 270.895 627.408 270.966C627.294 271.034 627.167 271.068 627.024 271.068Z" fill="black"/>
<path id="Vector_10" d="M621.852 271.119C621.29 271.119 620.788 271.023 620.348 270.83C619.911 270.636 619.562 270.368 619.304 270.024C619.048 269.678 618.909 269.276 618.886 268.818H619.96C619.983 269.099 620.08 269.342 620.25 269.547C620.42 269.749 620.643 269.905 620.919 270.016C621.195 270.126 621.5 270.182 621.835 270.182C622.21 270.182 622.543 270.116 622.832 269.986C623.122 269.855 623.349 269.673 623.514 269.44C623.679 269.207 623.761 268.938 623.761 268.631C623.761 268.31 623.682 268.027 623.523 267.783C623.364 267.536 623.131 267.342 622.824 267.203C622.517 267.064 622.142 266.994 621.699 266.994H621V266.057H621.699C622.045 266.057 622.349 265.994 622.611 265.869C622.875 265.744 623.081 265.568 623.229 265.341C623.379 265.114 623.455 264.847 623.455 264.54C623.455 264.244 623.389 263.987 623.259 263.768C623.128 263.55 622.943 263.379 622.705 263.257C622.469 263.135 622.19 263.074 621.869 263.074C621.568 263.074 621.284 263.129 621.017 263.24C620.753 263.348 620.537 263.506 620.369 263.713C620.202 263.918 620.111 264.165 620.097 264.455H619.074C619.091 263.997 619.229 263.597 619.487 263.253C619.746 262.906 620.084 262.636 620.501 262.443C620.922 262.25 621.384 262.153 621.886 262.153C622.426 262.153 622.889 262.263 623.276 262.482C623.662 262.697 623.959 262.983 624.166 263.338C624.374 263.693 624.477 264.077 624.477 264.489C624.477 264.98 624.348 265.399 624.089 265.746C623.834 266.092 623.486 266.332 623.045 266.466V266.534C623.597 266.625 624.027 266.859 624.337 267.237C624.646 267.612 624.801 268.077 624.801 268.631C624.801 269.105 624.672 269.531 624.413 269.909C624.158 270.284 623.808 270.58 623.365 270.795C622.922 271.011 622.418 271.119 621.852 271.119Z" fill="black"/>
</g>
<g id="3.10">
<path id="Vector_11" d="M463.961 263.119C463.319 263.119 462.772 262.945 462.32 262.595C461.869 262.243 461.523 261.733 461.285 261.065C461.046 260.395 460.927 259.585 460.927 258.636C460.927 257.693 461.046 256.888 461.285 256.22C461.526 255.55 461.873 255.038 462.325 254.686C462.779 254.331 463.325 254.153 463.961 254.153C464.597 254.153 465.141 254.331 465.593 254.686C466.048 255.038 466.394 255.55 466.633 256.22C466.874 256.888 466.995 257.693 466.995 258.636C466.995 259.585 466.876 260.395 466.637 261.065C466.398 261.733 466.053 262.243 465.602 262.595C465.15 262.945 464.603 263.119 463.961 263.119ZM463.961 262.182C464.597 262.182 465.092 261.875 465.444 261.261C465.796 260.648 465.972 259.773 465.972 258.636C465.972 257.881 465.891 257.237 465.729 256.706C465.57 256.175 465.34 255.77 465.039 255.491C464.741 255.213 464.381 255.074 463.961 255.074C463.33 255.074 462.837 255.385 462.482 256.007C462.127 256.626 461.95 257.503 461.95 258.636C461.95 259.392 462.029 260.034 462.188 260.563C462.347 261.091 462.576 261.493 462.874 261.768C463.175 262.044 463.538 262.182 463.961 262.182Z" fill="black"/>
<path id="Vector_12" d="M458.604 254.273V263H457.548V255.381H457.496L455.366 256.795V255.722L457.548 254.273H458.604Z" fill="black"/>
<path id="Vector_13" d="M454.024 263.068C453.814 263.068 453.634 262.993 453.483 262.842C453.333 262.692 453.257 262.511 453.257 262.301C453.257 262.091 453.333 261.911 453.483 261.76C453.634 261.609 453.814 261.534 454.024 261.534C454.235 261.534 454.415 261.609 454.566 261.76C454.716 261.911 454.792 262.091 454.792 262.301C454.792 262.44 454.756 262.568 454.685 262.685C454.617 262.801 454.524 262.895 454.408 262.966C454.294 263.034 454.167 263.068 454.024 263.068Z" fill="black"/>
<path id="Vector_14" d="M448.852 263.119C448.29 263.119 447.788 263.023 447.348 262.83C446.911 262.636 446.562 262.368 446.304 262.024C446.048 261.678 445.909 261.276 445.886 260.818H446.96C446.983 261.099 447.08 261.342 447.25 261.547C447.42 261.749 447.643 261.905 447.919 262.016C448.195 262.126 448.5 262.182 448.835 262.182C449.21 262.182 449.543 262.116 449.832 261.986C450.122 261.855 450.349 261.673 450.514 261.44C450.679 261.207 450.761 260.938 450.761 260.631C450.761 260.31 450.682 260.027 450.523 259.783C450.364 259.536 450.131 259.342 449.824 259.203C449.517 259.064 449.142 258.994 448.699 258.994H448V258.057H448.699C449.045 258.057 449.349 257.994 449.611 257.869C449.875 257.744 450.081 257.568 450.229 257.341C450.379 257.114 450.455 256.847 450.455 256.54C450.455 256.244 450.389 255.987 450.259 255.768C450.128 255.55 449.943 255.379 449.705 255.257C449.469 255.135 449.19 255.074 448.869 255.074C448.568 255.074 448.284 255.129 448.017 255.24C447.753 255.348 447.537 255.506 447.369 255.713C447.202 255.918 447.111 256.165 447.097 256.455H446.074C446.091 255.997 446.229 255.597 446.487 255.253C446.746 254.906 447.084 254.636 447.501 254.443C447.922 254.25 448.384 254.153 448.886 254.153C449.426 254.153 449.889 254.263 450.276 254.482C450.662 254.697 450.959 254.983 451.166 255.338C451.374 255.693 451.477 256.077 451.477 256.489C451.477 256.98 451.348 257.399 451.089 257.746C450.834 258.092 450.486 258.332 450.045 258.466V258.534C450.597 258.625 451.027 258.859 451.337 259.237C451.646 259.612 451.801 260.077 451.801 260.631C451.801 261.105 451.672 261.531 451.413 261.909C451.158 262.284 450.808 262.58 450.365 262.795C449.922 263.011 449.418 263.119 448.852 263.119Z" fill="black"/>
</g>
<g id="3.8">
<path id="Vector_15" d="M356.105 259.119C355.52 259.119 355.003 259.016 354.554 258.808C354.108 258.598 353.76 258.31 353.51 257.943C353.26 257.574 353.136 257.153 353.139 256.682C353.136 256.313 353.209 255.972 353.357 255.659C353.504 255.344 353.706 255.081 353.962 254.871C354.22 254.658 354.509 254.523 354.827 254.466V254.415C354.409 254.307 354.077 254.072 353.83 253.712C353.582 253.348 353.46 252.935 353.463 252.472C353.46 252.028 353.572 251.632 353.8 251.283C354.027 250.933 354.339 250.658 354.737 250.456C355.138 250.254 355.594 250.153 356.105 250.153C356.611 250.153 357.063 250.254 357.46 250.456C357.858 250.658 358.17 250.933 358.398 251.283C358.628 251.632 358.744 252.028 358.747 252.472C358.744 252.935 358.618 253.348 358.368 253.712C358.121 254.072 357.793 254.307 357.384 254.415V254.466C357.699 254.523 357.983 254.658 358.236 254.871C358.489 255.081 358.69 255.344 358.841 255.659C358.991 255.972 359.068 256.313 359.071 256.682C359.068 257.153 358.94 257.574 358.688 257.943C358.438 258.31 358.089 258.598 357.643 258.808C357.2 259.016 356.688 259.119 356.105 259.119ZM356.105 258.182C356.5 258.182 356.841 258.118 357.128 257.99C357.415 257.862 357.636 257.682 357.793 257.449C357.949 257.216 358.028 256.943 358.031 256.631C358.028 256.301 357.943 256.01 357.776 255.757C357.608 255.504 357.379 255.305 357.089 255.161C356.803 255.016 356.474 254.943 356.105 254.943C355.733 254.943 355.401 255.016 355.108 255.161C354.818 255.305 354.589 255.504 354.422 255.757C354.257 256.01 354.176 256.301 354.179 256.631C354.176 256.943 354.251 257.216 354.405 257.449C354.561 257.682 354.784 257.862 355.074 257.99C355.364 258.118 355.707 258.182 356.105 258.182ZM356.105 254.04C356.418 254.04 356.695 253.977 356.936 253.852C357.18 253.727 357.372 253.553 357.511 253.328C357.651 253.104 357.722 252.841 357.724 252.54C357.722 252.244 357.652 251.987 357.516 251.768C357.379 251.547 357.19 251.376 356.949 251.257C356.707 251.135 356.426 251.074 356.105 251.074C355.778 251.074 355.493 251.135 355.249 251.257C355.004 251.376 354.815 251.547 354.682 251.768C354.548 251.987 354.483 252.244 354.486 252.54C354.483 252.841 354.55 253.104 354.686 253.328C354.825 253.553 355.017 253.727 355.261 253.852C355.506 253.977 355.787 254.04 356.105 254.04Z" fill="black"/>
<path id="Vector_16" d="M351.024 259.068C350.814 259.068 350.634 258.993 350.483 258.842C350.333 258.692 350.257 258.511 350.257 258.301C350.257 258.091 350.333 257.911 350.483 257.76C350.634 257.609 350.814 257.534 351.024 257.534C351.235 257.534 351.415 257.609 351.566 257.76C351.716 257.911 351.792 258.091 351.792 258.301C351.792 258.44 351.756 258.568 351.685 258.685C351.617 258.801 351.524 258.895 351.408 258.966C351.294 259.034 351.167 259.068 351.024 259.068Z" fill="black"/>
<path id="Vector_17" d="M345.852 259.119C345.29 259.119 344.788 259.023 344.348 258.83C343.911 258.636 343.562 258.368 343.304 258.024C343.048 257.678 342.909 257.276 342.886 256.818H343.96C343.983 257.099 344.08 257.342 344.25 257.547C344.42 257.749 344.643 257.905 344.919 258.016C345.195 258.126 345.5 258.182 345.835 258.182C346.21 258.182 346.543 258.116 346.832 257.986C347.122 257.855 347.349 257.673 347.514 257.44C347.679 257.207 347.761 256.938 347.761 256.631C347.761 256.31 347.682 256.027 347.523 255.783C347.364 255.536 347.131 255.342 346.824 255.203C346.517 255.064 346.142 254.994 345.699 254.994H345V254.057H345.699C346.045 254.057 346.349 253.994 346.611 253.869C346.875 253.744 347.081 253.568 347.229 253.341C347.379 253.114 347.455 252.847 347.455 252.54C347.455 252.244 347.389 251.987 347.259 251.768C347.128 251.55 346.943 251.379 346.705 251.257C346.469 251.135 346.19 251.074 345.869 251.074C345.568 251.074 345.284 251.129 345.017 251.24C344.753 251.348 344.537 251.506 344.369 251.713C344.202 251.918 344.111 252.165 344.097 252.455H343.074C343.091 251.997 343.229 251.597 343.487 251.253C343.746 250.906 344.084 250.636 344.501 250.443C344.922 250.25 345.384 250.153 345.886 250.153C346.426 250.153 346.889 250.263 347.276 250.482C347.662 250.697 347.959 250.983 348.166 251.338C348.374 251.693 348.477 252.077 348.477 252.489C348.477 252.98 348.348 253.399 348.089 253.746C347.834 254.092 347.486 254.332 347.045 254.466V254.534C347.597 254.625 348.027 254.859 348.337 255.237C348.646 255.612 348.801 256.077 348.801 256.631C348.801 257.105 348.672 257.531 348.413 257.909C348.158 258.284 347.808 258.58 347.365 258.795C346.922 259.011 346.418 259.119 345.852 259.119Z" fill="black"/>
</g>
<g id="3.9">
<path id="Vector_18" d="M175.276 250.153C175.634 250.156 175.991 250.224 176.349 250.358C176.707 250.491 177.034 250.713 177.33 251.023C177.625 251.33 177.862 251.749 178.041 252.28C178.22 252.811 178.31 253.477 178.31 254.278C178.31 255.054 178.236 255.743 178.088 256.345C177.943 256.945 177.733 257.45 177.457 257.862C177.185 258.274 176.852 258.587 176.46 258.8C176.071 259.013 175.631 259.119 175.139 259.119C174.651 259.119 174.214 259.023 173.831 258.83C173.45 258.634 173.138 258.362 172.893 258.016C172.652 257.666 172.497 257.261 172.429 256.801H173.469C173.562 257.202 173.749 257.533 174.027 257.794C174.308 258.053 174.679 258.182 175.139 258.182C175.812 258.182 176.344 257.888 176.733 257.3C177.125 256.712 177.321 255.881 177.321 254.807H177.253C177.094 255.045 176.905 255.251 176.686 255.425C176.467 255.598 176.224 255.732 175.957 255.825C175.69 255.919 175.406 255.966 175.105 255.966C174.605 255.966 174.146 255.842 173.729 255.595C173.314 255.345 172.982 255.003 172.732 254.568C172.484 254.131 172.361 253.631 172.361 253.068C172.361 252.534 172.48 252.045 172.719 251.602C172.96 251.156 173.298 250.801 173.733 250.537C174.17 250.273 174.685 250.145 175.276 250.153ZM175.276 251.091C174.918 251.091 174.595 251.18 174.308 251.359C174.024 251.536 173.798 251.774 173.631 252.075C173.466 252.374 173.384 252.705 173.384 253.068C173.384 253.432 173.463 253.763 173.622 254.061C173.784 254.357 174.004 254.592 174.283 254.768C174.564 254.942 174.884 255.028 175.241 255.028C175.511 255.028 175.763 254.976 175.996 254.871C176.229 254.763 176.432 254.616 176.605 254.432C176.781 254.244 176.919 254.033 177.018 253.797C177.118 253.558 177.168 253.31 177.168 253.051C177.168 252.71 177.085 252.391 176.92 252.092C176.759 251.794 176.534 251.553 176.247 251.368C175.963 251.183 175.639 251.091 175.276 251.091Z" fill="black"/>
<path id="Vector_19" d="M170.025 259.068C169.814 259.068 169.634 258.993 169.483 258.842C169.333 258.692 169.257 258.511 169.257 258.301C169.257 258.091 169.333 257.911 169.483 257.76C169.634 257.609 169.814 257.534 170.025 257.534C170.235 257.534 170.415 257.609 170.566 257.76C170.716 257.911 170.792 258.091 170.792 258.301C170.792 258.44 170.756 258.568 170.685 258.685C170.617 258.801 170.525 258.895 170.408 258.966C170.294 259.034 170.167 259.068 170.025 259.068Z" fill="black"/>
<path id="Vector_20" d="M164.852 259.119C164.29 259.119 163.788 259.023 163.348 258.83C162.911 258.636 162.562 258.368 162.304 258.024C162.048 257.678 161.909 257.276 161.886 256.818H162.96C162.983 257.099 163.08 257.342 163.25 257.547C163.42 257.749 163.643 257.905 163.919 258.016C164.195 258.126 164.5 258.182 164.835 258.182C165.21 258.182 165.543 258.116 165.832 257.986C166.122 257.855 166.349 257.673 166.514 257.44C166.679 257.207 166.761 256.938 166.761 256.631C166.761 256.31 166.682 256.027 166.523 255.783C166.364 255.536 166.131 255.342 165.824 255.203C165.517 255.064 165.142 254.994 164.699 254.994H164V254.057H164.699C165.045 254.057 165.349 253.994 165.611 253.869C165.875 253.744 166.081 253.568 166.229 253.341C166.379 253.114 166.455 252.847 166.455 252.54C166.455 252.244 166.389 251.987 166.259 251.768C166.128 251.55 165.943 251.379 165.705 251.257C165.469 251.135 165.19 251.074 164.869 251.074C164.568 251.074 164.284 251.129 164.017 251.24C163.753 251.348 163.537 251.506 163.369 251.713C163.202 251.918 163.111 252.165 163.097 252.455H162.074C162.091 251.997 162.229 251.597 162.487 251.253C162.746 250.906 163.084 250.636 163.501 250.443C163.922 250.25 164.384 250.153 164.886 250.153C165.426 250.153 165.889 250.263 166.276 250.482C166.662 250.697 166.959 250.983 167.166 251.338C167.374 251.693 167.477 252.077 167.477 252.489C167.477 252.98 167.348 253.399 167.089 253.746C166.834 254.092 166.486 254.332 166.045 254.466V254.534C166.597 254.625 167.027 254.859 167.337 255.237C167.646 255.612 167.801 256.077 167.801 256.631C167.801 257.105 167.672 257.531 167.413 257.909C167.158 258.284 166.808 258.58 166.365 258.795C165.922 259.011 165.418 259.119 164.852 259.119Z" fill="black"/>
</g>
<g id="3.5">
<path id="Vector_21" d="M70.1307 274.119C69.6307 274.119 69.1804 274.02 68.7798 273.821C68.3793 273.622 68.0582 273.349 67.8168 273.003C67.5753 272.656 67.4432 272.261 67.4205 271.818H68.4432C68.483 272.213 68.6619 272.54 68.9801 272.798C69.3011 273.054 69.6847 273.182 70.1307 273.182C70.4886 273.182 70.8068 273.098 71.0852 272.93C71.3665 272.763 71.5866 272.533 71.7457 272.24C71.9077 271.945 71.9886 271.611 71.9886 271.239C71.9886 270.858 71.9048 270.518 71.7372 270.22C71.5724 269.919 71.3452 269.682 71.0554 269.509C70.7656 269.335 70.4347 269.247 70.0625 269.244C69.7955 269.241 69.5213 269.283 69.2401 269.368C68.9588 269.45 68.7273 269.557 68.5455 269.688L67.5568 269.568L68.0852 265.273H72.6193V266.21H68.9716L68.6648 268.784H68.7159C68.8949 268.642 69.1193 268.524 69.3892 268.43C69.6591 268.337 69.9403 268.29 70.233 268.29C70.767 268.29 71.2429 268.418 71.6605 268.673C72.081 268.926 72.4105 269.273 72.6491 269.713C72.8906 270.153 73.0114 270.656 73.0114 271.222C73.0114 271.778 72.8864 272.276 72.6364 272.713C72.3892 273.148 72.0483 273.491 71.6136 273.744C71.179 273.994 70.6847 274.119 70.1307 274.119Z" fill="black"/>
<path id="Vector_22" d="M65.0245 274.068C64.8143 274.068 64.6339 273.993 64.4833 273.842C64.3327 273.692 64.2575 273.511 64.2575 273.301C64.2575 273.091 64.3327 272.911 64.4833 272.76C64.6339 272.609 64.8143 272.534 65.0245 272.534C65.2347 272.534 65.4151 272.609 65.5657 272.76C65.7163 272.911 65.7916 273.091 65.7916 273.301C65.7916 273.44 65.756 273.568 65.685 273.685C65.6168 273.801 65.5245 273.895 65.408 273.966C65.2944 274.034 65.1666 274.068 65.0245 274.068Z" fill="black"/>
<path id="Vector_23" d="M59.8523 274.119C59.2898 274.119 58.7884 274.023 58.348 273.83C57.9105 273.636 57.5625 273.368 57.304 273.024C57.0483 272.678 56.9091 272.276 56.8864 271.818H57.9602C57.983 272.099 58.0795 272.342 58.25 272.547C58.4205 272.749 58.6435 272.905 58.919 273.016C59.1946 273.126 59.5 273.182 59.8352 273.182C60.2102 273.182 60.5426 273.116 60.8324 272.986C61.1222 272.855 61.3494 272.673 61.5142 272.44C61.679 272.207 61.7614 271.938 61.7614 271.631C61.7614 271.31 61.6818 271.027 61.5227 270.783C61.3636 270.536 61.1307 270.342 60.8239 270.203C60.517 270.064 60.142 269.994 59.6989 269.994H59V269.057H59.6989C60.0455 269.057 60.3494 268.994 60.6108 268.869C60.875 268.744 61.081 268.568 61.2287 268.341C61.3793 268.114 61.4545 267.847 61.4545 267.54C61.4545 267.244 61.3892 266.987 61.2585 266.768C61.1278 266.55 60.9432 266.379 60.7045 266.257C60.4688 266.135 60.1903 266.074 59.8693 266.074C59.5682 266.074 59.2841 266.129 59.017 266.24C58.7528 266.348 58.5369 266.506 58.3693 266.713C58.2017 266.918 58.1108 267.165 58.0966 267.455H57.0739C57.0909 266.997 57.2287 266.597 57.4872 266.253C57.7457 265.906 58.0838 265.636 58.5014 265.443C58.9219 265.25 59.3835 265.153 59.8864 265.153C60.4261 265.153 60.8892 265.263 61.2756 265.482C61.6619 265.697 61.9588 265.983 62.1662 266.338C62.3736 266.693 62.4773 267.077 62.4773 267.489C62.4773 267.98 62.348 268.399 62.0895 268.746C61.8338 269.092 61.4858 269.332 61.0455 269.466V269.534C61.5966 269.625 62.027 269.859 62.3366 270.237C62.6463 270.612 62.8011 271.077 62.8011 271.631C62.8011 272.105 62.6719 272.531 62.4134 272.909C62.1577 273.284 61.8082 273.58 61.3651 273.795C60.9219 274.011 60.4176 274.119 59.8523 274.119Z" fill="black"/>
</g>
<g id="3.4">
<path id="Vector_24" d="M62.3746 483.21V482.341L66.2099 476.273H66.8406V477.619H66.4144L63.5167 482.205V482.273H68.6815V483.21H62.3746ZM66.4826 485V482.946V482.541V476.273H67.4883V485H66.4826Z" fill="black"/>
<path id="Vector_25" d="M60.0245 485.068C59.8143 485.068 59.6339 484.993 59.4833 484.842C59.3327 484.692 59.2575 484.511 59.2575 484.301C59.2575 484.091 59.3327 483.911 59.4833 483.76C59.6339 483.609 59.8143 483.534 60.0245 483.534C60.2347 483.534 60.4151 483.609 60.5657 483.76C60.7163 483.911 60.7915 484.091 60.7915 484.301C60.7915 484.44 60.756 484.568 60.685 484.685C60.6168 484.801 60.5245 484.895 60.408 484.966C60.2944 485.034 60.1665 485.068 60.0245 485.068Z" fill="black"/>
<path id="Vector_26" d="M54.8523 485.119C54.2898 485.119 53.7884 485.023 53.348 484.83C52.9105 484.636 52.5625 484.368 52.304 484.024C52.0483 483.678 51.9091 483.276 51.8864 482.818H52.9602C52.983 483.099 53.0795 483.342 53.25 483.547C53.4205 483.749 53.6435 483.905 53.919 484.016C54.1946 484.126 54.5 484.182 54.8352 484.182C55.2102 484.182 55.5426 484.116 55.8324 483.986C56.1222 483.855 56.3494 483.673 56.5142 483.44C56.679 483.207 56.7614 482.938 56.7614 482.631C56.7614 482.31 56.6818 482.027 56.5227 481.783C56.3636 481.536 56.1307 481.342 55.8239 481.203C55.517 481.064 55.142 480.994 54.6989 480.994H54V480.057H54.6989C55.0455 480.057 55.3494 479.994 55.6108 479.869C55.875 479.744 56.081 479.568 56.2287 479.341C56.3793 479.114 56.4545 478.847 56.4545 478.54C56.4545 478.244 56.3892 477.987 56.2585 477.768C56.1278 477.55 55.9432 477.379 55.7045 477.257C55.4688 477.135 55.1903 477.074 54.8693 477.074C54.5682 477.074 54.2841 477.129 54.017 477.24C53.7528 477.348 53.5369 477.506 53.3693 477.713C53.2017 477.918 53.1108 478.165 53.0966 478.455H52.0739C52.0909 477.997 52.2287 477.597 52.4872 477.253C52.7457 476.906 53.0838 476.636 53.5014 476.443C53.9219 476.25 54.3835 476.153 54.8864 476.153C55.4261 476.153 55.8892 476.263 56.2756 476.482C56.6619 476.697 56.9588 476.983 57.1662 477.338C57.3736 477.693 57.4773 478.077 57.4773 478.489C57.4773 478.98 57.348 479.399 57.0895 479.746C56.8338 480.092 56.4858 480.332 56.0455 480.466V480.534C56.5966 480.625 57.027 480.859 57.3366 481.237C57.6463 481.612 57.8011 482.077 57.8011 482.631C57.8011 483.105 57.6719 483.531 57.4134 483.909C57.1577 484.284 56.8082 484.58 56.3651 484.795C55.9219 485.011 55.4176 485.119 54.8523 485.119Z" fill="black"/>
</g>
<g id="3.3">
<path id="Vector_27" d="M219.2 491.119C218.637 491.119 218.136 491.023 217.696 490.83C217.258 490.636 216.91 490.368 216.652 490.024C216.396 489.678 216.257 489.276 216.234 488.818H217.308C217.331 489.099 217.427 489.342 217.598 489.547C217.768 489.749 217.991 489.905 218.267 490.016C218.542 490.126 218.848 490.182 219.183 490.182C219.558 490.182 219.89 490.116 220.18 489.986C220.47 489.855 220.697 489.673 220.862 489.44C221.027 489.207 221.109 488.938 221.109 488.631C221.109 488.31 221.029 488.027 220.87 487.783C220.711 487.536 220.478 487.342 220.172 487.203C219.865 487.064 219.49 486.994 219.047 486.994H218.348V486.057H219.047C219.393 486.057 219.697 485.994 219.958 485.869C220.223 485.744 220.429 485.568 220.576 485.341C220.727 485.114 220.802 484.847 220.802 484.54C220.802 484.244 220.737 483.987 220.606 483.768C220.476 483.55 220.291 483.379 220.052 483.257C219.816 483.135 219.538 483.074 219.217 483.074C218.916 483.074 218.632 483.129 218.365 483.24C218.101 483.348 217.885 483.506 217.717 483.713C217.549 483.918 217.458 484.165 217.444 484.455H216.422C216.439 483.997 216.576 483.597 216.835 483.253C217.093 482.906 217.431 482.636 217.849 482.443C218.27 482.25 218.731 482.153 219.234 482.153C219.774 482.153 220.237 482.263 220.623 482.482C221.01 482.697 221.306 482.983 221.514 483.338C221.721 483.693 221.825 484.077 221.825 484.489C221.825 484.98 221.696 485.399 221.437 485.746C221.181 486.092 220.833 486.332 220.393 486.466V486.534C220.944 486.625 221.375 486.859 221.684 487.237C221.994 487.612 222.149 488.077 222.149 488.631C222.149 489.105 222.02 489.531 221.761 489.909C221.505 490.284 221.156 490.58 220.713 490.795C220.27 491.011 219.765 491.119 219.2 491.119Z" fill="black"/>
<path id="Vector_28" d="M214.025 491.068C213.814 491.068 213.634 490.993 213.483 490.842C213.333 490.692 213.257 490.511 213.257 490.301C213.257 490.091 213.333 489.911 213.483 489.76C213.634 489.609 213.814 489.534 214.025 489.534C214.235 489.534 214.415 489.609 214.566 489.76C214.716 489.911 214.792 490.091 214.792 490.301C214.792 490.44 214.756 490.568 214.685 490.685C214.617 490.801 214.525 490.895 214.408 490.966C214.294 491.034 214.167 491.068 214.025 491.068Z" fill="black"/>
<path id="Vector_29" d="M208.852 491.119C208.29 491.119 207.788 491.023 207.348 490.83C206.911 490.636 206.563 490.368 206.304 490.024C206.048 489.678 205.909 489.276 205.886 488.818H206.96C206.983 489.099 207.08 489.342 207.25 489.547C207.42 489.749 207.643 489.905 207.919 490.016C208.195 490.126 208.5 490.182 208.835 490.182C209.21 490.182 209.543 490.116 209.832 489.986C210.122 489.855 210.349 489.673 210.514 489.44C210.679 489.207 210.761 488.938 210.761 488.631C210.761 488.31 210.682 488.027 210.523 487.783C210.364 487.536 210.131 487.342 209.824 487.203C209.517 487.064 209.142 486.994 208.699 486.994H208V486.057H208.699C209.045 486.057 209.349 485.994 209.611 485.869C209.875 485.744 210.081 485.568 210.229 485.341C210.379 485.114 210.455 484.847 210.455 484.54C210.455 484.244 210.389 483.987 210.259 483.768C210.128 483.55 209.943 483.379 209.705 483.257C209.469 483.135 209.19 483.074 208.869 483.074C208.568 483.074 208.284 483.129 208.017 483.24C207.753 483.348 207.537 483.506 207.369 483.713C207.202 483.918 207.111 484.165 207.097 484.455H206.074C206.091 483.997 206.229 483.597 206.487 483.253C206.746 482.906 207.084 482.636 207.501 482.443C207.922 482.25 208.384 482.153 208.886 482.153C209.426 482.153 209.889 482.263 210.276 482.482C210.662 482.697 210.959 482.983 211.166 483.338C211.374 483.693 211.477 484.077 211.477 484.489C211.477 484.98 211.348 485.399 211.089 485.746C210.834 486.092 210.486 486.332 210.045 486.466V486.534C210.597 486.625 211.027 486.859 211.337 487.237C211.646 487.612 211.801 488.077 211.801 488.631C211.801 489.105 211.672 489.531 211.413 489.909C211.158 490.284 210.808 490.58 210.365 490.795C209.922 491.011 209.418 491.119 208.852 491.119Z" fill="black"/>
</g>
<g id="3.2">
<path id="Vector_30" d="M374.579 491V490.233L377.46 487.08C377.798 486.71 378.076 486.389 378.295 486.116C378.514 485.841 378.676 485.582 378.781 485.341C378.889 485.097 378.943 484.841 378.943 484.574C378.943 484.267 378.869 484.001 378.721 483.777C378.576 483.553 378.377 483.379 378.125 483.257C377.872 483.135 377.588 483.074 377.272 483.074C376.937 483.074 376.645 483.143 376.395 483.283C376.147 483.419 375.956 483.611 375.819 483.858C375.686 484.105 375.619 484.395 375.619 484.727H374.613C374.613 484.216 374.731 483.767 374.967 483.381C375.203 482.994 375.524 482.693 375.93 482.477C376.339 482.261 376.798 482.153 377.306 482.153C377.818 482.153 378.271 482.261 378.666 482.477C379.061 482.693 379.37 482.984 379.595 483.351C379.819 483.717 379.931 484.125 379.931 484.574C379.931 484.895 379.873 485.209 379.757 485.516C379.643 485.82 379.444 486.159 379.16 486.534C378.879 486.906 378.488 487.361 377.988 487.898L376.028 489.994V490.063H380.085V491H374.579Z" fill="black"/>
<path id="Vector_31" d="M372.024 491.068C371.814 491.068 371.634 490.993 371.483 490.842C371.333 490.692 371.257 490.511 371.257 490.301C371.257 490.091 371.333 489.911 371.483 489.76C371.634 489.609 371.814 489.534 372.024 489.534C372.235 489.534 372.415 489.609 372.566 489.76C372.716 489.911 372.792 490.091 372.792 490.301C372.792 490.44 372.756 490.568 372.685 490.685C372.617 490.801 372.524 490.895 372.408 490.966C372.294 491.034 372.167 491.068 372.024 491.068Z" fill="black"/>
<path id="Vector_32" d="M366.852 491.119C366.29 491.119 365.788 491.023 365.348 490.83C364.911 490.636 364.562 490.368 364.304 490.024C364.048 489.678 363.909 489.276 363.886 488.818H364.96C364.983 489.099 365.08 489.342 365.25 489.547C365.42 489.749 365.643 489.905 365.919 490.016C366.195 490.126 366.5 490.182 366.835 490.182C367.21 490.182 367.543 490.116 367.832 489.986C368.122 489.855 368.349 489.673 368.514 489.44C368.679 489.207 368.761 488.938 368.761 488.631C368.761 488.31 368.682 488.027 368.523 487.783C368.364 487.536 368.131 487.342 367.824 487.203C367.517 487.064 367.142 486.994 366.699 486.994H366V486.057H366.699C367.045 486.057 367.349 485.994 367.611 485.869C367.875 485.744 368.081 485.568 368.229 485.341C368.379 485.114 368.455 484.847 368.455 484.54C368.455 484.244 368.389 483.987 368.259 483.768C368.128 483.55 367.943 483.379 367.705 483.257C367.469 483.135 367.19 483.074 366.869 483.074C366.568 483.074 366.284 483.129 366.017 483.24C365.753 483.348 365.537 483.506 365.369 483.713C365.202 483.918 365.111 484.165 365.097 484.455H364.074C364.091 483.997 364.229 483.597 364.487 483.253C364.746 482.906 365.084 482.636 365.501 482.443C365.922 482.25 366.384 482.153 366.886 482.153C367.426 482.153 367.889 482.263 368.276 482.482C368.662 482.697 368.959 482.983 369.166 483.338C369.374 483.693 369.477 484.077 369.477 484.489C369.477 484.98 369.348 485.399 369.089 485.746C368.834 486.092 368.486 486.332 368.045 486.466V486.534C368.597 486.625 369.027 486.859 369.337 487.237C369.646 487.612 369.801 488.077 369.801 488.631C369.801 489.105 369.672 489.531 369.413 489.909C369.158 490.284 368.808 490.58 368.365 490.795C367.922 491.011 367.418 491.119 366.852 491.119Z" fill="black"/>
</g>
<g id="3.1">
<path id="Vector_33" d="M511.604 482.273V491H510.548V483.381H510.496L508.366 484.795V483.722L510.548 482.273H511.604Z" fill="black"/>
<path id="Vector_34" d="M507.024 491.068C506.814 491.068 506.634 490.993 506.483 490.842C506.333 490.692 506.257 490.511 506.257 490.301C506.257 490.091 506.333 489.911 506.483 489.76C506.634 489.609 506.814 489.534 507.024 489.534C507.235 489.534 507.415 489.609 507.566 489.76C507.716 489.911 507.792 490.091 507.792 490.301C507.792 490.44 507.756 490.568 507.685 490.685C507.617 490.801 507.524 490.895 507.408 490.966C507.294 491.034 507.167 491.068 507.024 491.068Z" fill="black"/>
<path id="Vector_35" d="M501.852 491.119C501.29 491.119 500.788 491.023 500.348 490.83C499.911 490.636 499.562 490.368 499.304 490.024C499.048 489.678 498.909 489.276 498.886 488.818H499.96C499.983 489.099 500.08 489.342 500.25 489.547C500.42 489.749 500.643 489.905 500.919 490.016C501.195 490.126 501.5 490.182 501.835 490.182C502.21 490.182 502.543 490.116 502.832 489.986C503.122 489.855 503.349 489.673 503.514 489.44C503.679 489.207 503.761 488.938 503.761 488.631C503.761 488.31 503.682 488.027 503.523 487.783C503.364 487.536 503.131 487.342 502.824 487.203C502.517 487.064 502.142 486.994 501.699 486.994H501V486.057H501.699C502.045 486.057 502.349 485.994 502.611 485.869C502.875 485.744 503.081 485.568 503.229 485.341C503.379 485.114 503.455 484.847 503.455 484.54C503.455 484.244 503.389 483.987 503.259 483.768C503.128 483.55 502.943 483.379 502.705 483.257C502.469 483.135 502.19 483.074 501.869 483.074C501.568 483.074 501.284 483.129 501.017 483.24C500.753 483.348 500.537 483.506 500.369 483.713C500.202 483.918 500.111 484.165 500.097 484.455H499.074C499.091 483.997 499.229 483.597 499.487 483.253C499.746 482.906 500.084 482.636 500.501 482.443C500.922 482.25 501.384 482.153 501.886 482.153C502.426 482.153 502.889 482.263 503.276 482.482C503.662 482.697 503.959 482.983 504.166 483.338C504.374 483.693 504.477 484.077 504.477 484.489C504.477 484.98 504.348 485.399 504.089 485.746C503.834 486.092 503.486 486.332 503.045 486.466V486.534C503.597 486.625 504.027 486.859 504.337 487.237C504.646 487.612 504.801 488.077 504.801 488.631C504.801 489.105 504.672 489.531 504.413 489.909C504.158 490.284 503.808 490.58 503.365 490.795C502.922 491.011 502.418 491.119 501.852 491.119Z" fill="black"/>
</g>
</g>
</g>
</svg>
