<svg width="1200" height="800" viewBox="0 0 1200 800" fill="none" xmlns="http://www.w3.org/2000/svg">
<rect width="1200" height="800" fill="#1E1E1E"/>
<g id="floor1">
<rect width="1200" height="800" fill="white"/>
<g id="Group hallway">
<rect id="hallway" x="228" y="223" width="101" height="314" fill="#CCCCCC" stroke="#666666" stroke-width="2"/>
</g>
<g id="Group room">
<rect id="room-102" x="330.5" y="316.5" width="144" height="127" fill="#E9ECEF" stroke="#495057"/>
<rect id="room-101" x="82.5" y="233.5" width="144" height="127" fill="#E9ECEF" stroke="#495057"/>
</g>
<g id="Group text">
<g id="2.11&#208;&#145;">
<path id="Vector" d="M160.74 301V292.273H166.007V293.21H161.797V295.938H164.013C164.638 295.938 165.165 296.04 165.594 296.244C166.026 296.449 166.353 296.737 166.574 297.109C166.799 297.482 166.911 297.92 166.911 298.426C166.911 298.932 166.799 299.378 166.574 299.764C166.353 300.151 166.026 300.453 165.594 300.672C165.165 300.891 164.638 301 164.013 301H160.74ZM161.797 300.08H164.013C164.411 300.08 164.748 300 165.023 299.841C165.301 299.679 165.512 299.472 165.654 299.219C165.799 298.963 165.871 298.693 165.871 298.409C165.871 297.991 165.711 297.632 165.39 297.331C165.069 297.027 164.61 296.875 164.013 296.875H161.797V300.08Z" fill="black"/>
<path id="Vector_2" d="M158.077 292.273V301H157.02V293.381H156.969L154.838 294.795V293.722L157.02 292.273H158.077Z" fill="black"/>
<path id="Vector_3" d="M152.499 292.273V301H151.442V293.381H151.391L149.26 294.795V293.722L151.442 292.273H152.499Z" fill="black"/>
<path id="Vector_4" d="M147.919 301.068C147.709 301.068 147.528 300.993 147.378 300.842C147.227 300.692 147.152 300.511 147.152 300.301C147.152 300.091 147.227 299.911 147.378 299.76C147.528 299.609 147.709 299.534 147.919 299.534C148.129 299.534 148.31 299.609 148.46 299.76C148.611 299.911 148.686 300.091 148.686 300.301C148.686 300.44 148.651 300.568 148.58 300.685C148.511 300.801 148.419 300.895 148.303 300.966C148.189 301.034 148.061 301.068 147.919 301.068Z" fill="black"/>
<path id="Vector_5" d="M139.903 301V300.233L142.784 297.08C143.122 296.71 143.401 296.389 143.619 296.116C143.838 295.841 144 295.582 144.105 295.341C144.213 295.097 144.267 294.841 144.267 294.574C144.267 294.267 144.193 294.001 144.045 293.777C143.901 293.553 143.702 293.379 143.449 293.257C143.196 293.135 142.912 293.074 142.597 293.074C142.261 293.074 141.969 293.143 141.719 293.283C141.472 293.419 141.28 293.611 141.143 293.858C141.01 294.105 140.943 294.395 140.943 294.727H139.938C139.938 294.216 140.055 293.767 140.291 293.381C140.527 292.994 140.848 292.693 141.254 292.477C141.663 292.261 142.122 292.153 142.631 292.153C143.142 292.153 143.595 292.261 143.99 292.477C144.385 292.693 144.695 292.984 144.919 293.351C145.143 293.717 145.256 294.125 145.256 294.574C145.256 294.895 145.197 295.209 145.081 295.516C144.967 295.82 144.768 296.159 144.484 296.534C144.203 296.906 143.813 297.361 143.313 297.898L141.352 299.994V300.063H145.409V301H139.903Z" fill="black"/>
</g>
<g id="2.10&#208;&#145;">
<path id="Vector_6" d="M410.662 384V375.273H415.929V376.21H411.719V378.938H413.935C414.56 378.938 415.087 379.04 415.516 379.244C415.948 379.449 416.275 379.737 416.496 380.109C416.721 380.482 416.833 380.92 416.833 381.426C416.833 381.932 416.721 382.378 416.496 382.764C416.275 383.151 415.948 383.453 415.516 383.672C415.087 383.891 414.56 384 413.935 384H410.662ZM411.719 383.08H413.935C414.333 383.08 414.669 383 414.945 382.841C415.223 382.679 415.434 382.472 415.576 382.219C415.721 381.963 415.793 381.693 415.793 381.409C415.793 380.991 415.632 380.632 415.311 380.331C414.99 380.027 414.532 379.875 413.935 379.875H411.719V383.08Z" fill="black"/>
<path id="Vector_7" d="M405.855 384.119C405.213 384.119 404.667 383.945 404.215 383.595C403.763 383.243 403.418 382.733 403.179 382.065C402.941 381.395 402.821 380.585 402.821 379.636C402.821 378.693 402.941 377.888 403.179 377.22C403.421 376.55 403.767 376.038 404.219 375.686C404.674 375.331 405.219 375.153 405.855 375.153C406.492 375.153 407.036 375.331 407.488 375.686C407.942 376.038 408.289 376.55 408.527 377.22C408.769 377.888 408.89 378.693 408.89 379.636C408.89 380.585 408.77 381.395 408.532 382.065C408.293 382.733 407.948 383.243 407.496 383.595C407.044 383.945 406.498 384.119 405.855 384.119ZM405.855 383.182C406.492 383.182 406.986 382.875 407.338 382.261C407.691 381.648 407.867 380.773 407.867 379.636C407.867 378.881 407.786 378.237 407.624 377.706C407.465 377.175 407.235 376.77 406.934 376.491C406.635 376.213 406.276 376.074 405.855 376.074C405.225 376.074 404.732 376.385 404.377 377.007C404.022 377.626 403.844 378.503 403.844 379.636C403.844 380.392 403.924 381.034 404.083 381.563C404.242 382.091 404.471 382.493 404.769 382.768C405.07 383.044 405.432 383.182 405.855 383.182Z" fill="black"/>
<path id="Vector_8" d="M400.499 375.273V384H399.442V376.381H399.391L397.26 377.795V376.722L399.442 375.273H400.499Z" fill="black"/>
<path id="Vector_9" d="M395.919 384.068C395.709 384.068 395.528 383.993 395.378 383.842C395.227 383.692 395.152 383.511 395.152 383.301C395.152 383.091 395.227 382.911 395.378 382.76C395.528 382.609 395.709 382.534 395.919 382.534C396.129 382.534 396.31 382.609 396.46 382.76C396.611 382.911 396.686 383.091 396.686 383.301C396.686 383.44 396.651 383.568 396.58 383.685C396.511 383.801 396.419 383.895 396.303 383.966C396.189 384.034 396.061 384.068 395.919 384.068Z" fill="black"/>
<path id="Vector_10" d="M387.903 384V383.233L390.784 380.08C391.122 379.71 391.401 379.389 391.619 379.116C391.838 378.841 392 378.582 392.105 378.341C392.213 378.097 392.267 377.841 392.267 377.574C392.267 377.267 392.193 377.001 392.045 376.777C391.901 376.553 391.702 376.379 391.449 376.257C391.196 376.135 390.912 376.074 390.597 376.074C390.261 376.074 389.969 376.143 389.719 376.283C389.472 376.419 389.28 376.611 389.143 376.858C389.01 377.105 388.943 377.395 388.943 377.727H387.938C387.938 377.216 388.055 376.767 388.291 376.381C388.527 375.994 388.848 375.693 389.254 375.477C389.663 375.261 390.122 375.153 390.631 375.153C391.142 375.153 391.595 375.261 391.99 375.477C392.385 375.693 392.695 375.984 392.919 376.351C393.143 376.717 393.256 377.125 393.256 377.574C393.256 377.895 393.197 378.209 393.081 378.516C392.967 378.82 392.768 379.159 392.484 379.534C392.203 379.906 391.813 380.361 391.313 380.898L389.352 382.994V383.063H393.409V384H387.903Z" fill="black"/>
</g>
</g>
</g>
</svg>
